<?xml version="1.0" encoding="UTF-8" standalone="no"?>
<svg
   version="1.0"
   width="1024.000000pt"
   height="1024.000000pt"
   viewBox="0 0 1024.000000 1024.000000"
   preserveAspectRatio="xMidYMid meet"
   id="svg8"
   sodipodi:docname="Circle-Muza-Fin-Ed-logo.svg"
   inkscape:version="1.3 (0e150ed6c4, 2023-07-21)"
   xmlns:inkscape="http://www.inkscape.org/namespaces/inkscape"
   xmlns:sodipodi="http://sodipodi.sourceforge.net/DTD/sodipodi-0.dtd"
   xmlns="http://www.w3.org/2000/svg"
   xmlns:svg="http://www.w3.org/2000/svg">
  <defs
     id="defs8" />
  <sodipodi:namedview
     id="namedview8"
     pagecolor="#505050"
     bordercolor="#eeeeee"
     borderopacity="1"
     inkscape:showpageshadow="0"
     inkscape:pageopacity="0"
     inkscape:pagecheckerboard="0"
     inkscape:deskcolor="#d1d1d1"
     inkscape:document-units="pt"
     inkscape:zoom="0.43037529"
     inkscape:cx="533.25552"
     inkscape:cy="821.37614"
     inkscape:window-width="1920"
     inkscape:window-height="1009"
     inkscape:window-x="1912"
     inkscape:window-y="-8"
     inkscape:window-maximized="1"
     inkscape:current-layer="g8" />
  <g
     transform="translate(0.000000,1024.000000) scale(0.100000,-0.100000)"
     fill="#000000"
     stroke="none"
     id="g8">
    <path
       id="rect8"
       style="display:inline;fill:#ffffff;stroke:#000000;stroke-width:62.341;stroke-linecap:round;stroke-linejoin:round;stroke-dashoffset:7.8"
       d="m 4938.292,10060.033 c -34.6339,-2.771 -146.8479,-11.089 -249.3641,-19.401 -1055.6398,-84.506 -2061.4165,-502.8925 -2860.7658,-1192.7988 -153.7744,-132.994 -426.6855,-410.064 -556.909,-566.609 C 654.77064,7538.6745 264.10239,6628.5077 158.81554,5690.623 115.86948,5298.5678 113.10015,5004.8622 153.27549,4607.2655 247.47955,3651.3711 604.89514,2778.5956 1219.9925,2009.7239 1352.9864,1844.8669 1685.4841,1501.3011 1855.8827,1354.4536 3093.004,290.50168 4785.8977,-112.62942 6358.2746,282.19661 7231.0477,501.0826 8031.786,958.23725 8680.1317,1605.1975 c 828.4417,827.0564 1325.7843,1868.8443 1439.3823,3018.6883 127.453,1284.2232 -256.2924,2568.4501 -1075.0366,3594.9974 -156.5449,196.7203 -537.5167,576.3068 -732.8517,732.8517 -785.4957,624.7948 -1651.3379,978.0612 -2646.0221,1080.5771 -199.4912,20.78 -616.4833,37.418 -727.3116,27.721 z"
       inkscape:label="BG-circle"
       inkscape:export-filename="favicon.png"
       inkscape:export-xdpi="19.02359"
       inkscape:export-ydpi="19.02359" />
    <path
       d="M 4872.4335,9057.0597 C 4777.1699,9024.1504 2251.8185,7569.2155 1898.4772,7344.047 1723.5386,7233.1948 1597.0977,7077.3089 1524.351,6881.5856 c -38.1054,-95.2637 -38.1054,-112.5843 -43.3016,-1699.1563 -3.4641,-1046.1676 1.732,-1650.6582 12.1245,-1740.7256 43.3016,-320.4323 213.044,-533.4763 616.6153,-765.573 133.3691,-76.2109 779.4293,-448.605 1435.8822,-827.9273 656.4528,-379.3224 1236.6947,-704.9507 1290.3887,-724.0034 102.1919,-36.3733 315.2359,-50.2298 403.5713,-24.2489 31.1772,8.6603 58.8903,36.3735 79.675,77.943 57.1582,110.8521 232.0968,542.1365 225.1685,550.7967 -5.1961,3.4641 -72.7467,-20.7847 -154.1538,-53.694 -169.7424,-69.2826 -299.6473,-77.9428 -439.9446,-29.445 -46.7658,17.3206 -495.3708,266.738 -995.9376,557.7251 -500.5669,289.2548 -1096.3975,633.9359 -1325.0301,765.5728 -426.0881,247.6855 -521.3517,316.968 -585.4381,438.2126 l -38.1055,69.2827 -5.1961,1548.4663 c -5.1963,1700.8884 -6.9284,1650.6585 98.7276,1796.1519 29.4452,38.1056 81.4072,90.0674 117.7805,114.3164 36.3733,24.2488 517.8876,308.3077 1070.4164,628.7397 552.5289,322.1642 1150.0915,670.3094 1326.7623,774.2333 526.5479,306.5756 526.5479,306.5756 1200.3212,-84.8713 1380.4561,-800.2141 1811.7405,-1054.8278 1896.6117,-1117.1822 72.7467,-55.4261 95.2637,-64.0863 107.3881,-46.7657 6.9281,13.8566 50.2298,110.8522 95.2636,218.2402 l 79.6749,193.9913 -32.9092,57.1583 c -27.713,46.7657 -233.8288,173.2066 -1158.7518,711.8788 -1224.5702,713.6109 -1325.03,767.305 -1453.203,801.9463 -136.833,36.3735 -344.6809,29.4451 -476.3179,-15.5886 z"
       id="path2"
       style="stroke-width:1.73206" />
    <path
       d="m 5961.9027,7132.735 c -310.0397,-105.6559 -578.51,-202.6517 -594.0985,-216.5082 -19.0528,-15.5886 -27.713,-43.3016 -24.2489,-77.9429 5.1961,-45.0337 32.9093,-74.4788 187.0631,-188.795 100.4598,-74.4789 183.5988,-140.2973 185.3311,-147.2257 6.9282,-15.5886 -826.1953,-999.4017 -845.248,-999.4017 -8.6603,0 -162.8142,122.9766 -342.9489,271.9342 -180.1349,150.6897 -348.1452,280.5945 -374.1262,290.987 -64.0865,24.2489 -157.618,20.7848 -213.0441,-6.9282 -25.981,-13.8565 -325.6282,-310.0397 -668.5772,-658.1849 -663.381,-678.9697 -665.1132,-678.9697 -633.936,-819.2669 43.3017,-190.5273 268.4702,-278.8625 426.0881,-164.5463 36.3735,27.7131 277.1304,265.0061 533.4761,530.0121 256.3457,263.274 472.8539,476.318 479.7822,474.5859 6.9283,-3.4642 161.0821,-131.6369 342.9489,-285.7907 223.4365,-188.7952 353.3414,-287.523 398.3751,-301.3795 83.1392,-24.2489 173.2066,-8.6603 235.561,39.8375 27.7131,20.7848 213.044,225.1684 412.2314,453.801 200.9197,230.3649 445.141,509.2274 543.8687,620.0795 l 180.1348,202.6518 162.8141,-119.5126 c 235.5609,-173.2066 292.719,-162.8141 310.0397,55.4261 19.0528,258.0778 45.0336,841.7837 45.0336,1004.598 0,159.35 -1.732,168.0103 -45.0336,202.6515 -25.9809,20.785 -65.8185,34.6414 -91.7995,34.6414 -24.2489,-1.732 -299.6474,-90.0674 -609.687,-195.7234 z"
       id="path3"
       style="stroke-width:1.73206" />
    <path
       d="M 8383.3302,7144.8596 C 8348.6889,7070.3808 8080.2187,6432.9805 7785.7675,5728.03 7489.5844,5023.0793 7049.6398,3975.1797 6807.1506,3398.402 6282.3348,2151.3149 5998.2761,1475.8093 5984.4195,1442.9 c -5.1961,-13.8565 19.0528,-6.9281 67.5506,20.7849 41.5696,24.2488 559.4572,322.1642 1150.0915,663.3809 590.6343,339.485 1105.0577,637.4003 1141.431,661.6491 169.7425,105.656 325.6284,296.1832 396.6431,484.9783 38.1054,98.7278 38.1054,102.1919 43.3017,1718.2089 3.4641,1072.1486 -1.732,1661.0508 -13.8566,1740.7258 -22.5169,150.6897 -109.1202,332.5565 -216.5083,455.5334 -45.0336,48.4977 -86.6032,90.0671 -93.5314,90.0671 -6.9282,0 -41.5697,-60.6222 -76.2109,-133.3688 z M 8281.1383,4428.9809 c -5.1962,-909.3343 -5.1962,-917.9948 -43.3017,-995.9376 -22.5168,-43.3016 -71.0146,-109.1201 -109.1201,-147.2256 -67.5505,-65.8185 -1111.9859,-689.362 -1122.3783,-668.5773 -1.732,6.9283 71.0147,185.331 162.8141,400.1071 304.8435,713.611 729.1996,1737.2617 919.7268,2213.5797 l 187.063,469.3897 5.1962,-176.6707 c 3.4642,-96.9956 3.4642,-588.9023 0,-1094.6653 z"
       id="path4"
       style="stroke-width:1.73206" />
    <path
       d="m 6008.6684,5473.4163 c -24.2489,-34.6412 -27.713,-200.9196 -27.713,-1451.4708 l 1.7321,-1411.6334 51.962,121.2447 c 29.4451,67.5505 185.331,443.4087 346.4131,838.3196 l 292.7189,717.0752 v 576.7777 576.7778 l -45.0336,34.6413 c -41.5697,32.9092 -69.2827,36.3734 -320.432,36.3734 -263.274,0 -273.6664,-1.7321 -299.6475,-38.1055 z"
       id="path5"
       style="stroke-width:1.73206" />
    <path
       d="m 4908.8069,4442.8374 c -36.3734,-45.0337 -36.3734,-53.694 -36.3734,-1243.6231 l 1.7322,-1198.5892 88.3352,-48.4978 c 67.5505,-36.3733 121.2446,-50.2299 213.0441,-57.1582 138.5653,-8.6603 219.9722,10.3924 332.5566,81.4072 l 74.4788,45.0337 v 1188.1968 c 0,1176.0725 0,1189.9289 -36.3734,1234.9627 l -34.6413,45.0337 H 5227.507 4943.4481 Z"
       id="path6"
       style="stroke-width:1.73206" />
    <path
       d="m 3836.6584,4321.5929 c -12.1245,-5.1963 -32.9092,-31.1772 -46.7658,-57.1582 -22.5168,-41.5697 -25.981,-176.6708 -25.981,-834.8555 v -784.6257 l 187.0632,-102.1919 c 102.1918,-57.1581 261.5419,-148.9577 355.0733,-202.6515 l 168.0103,-100.4599 v 1008.062 c 0,885.0855 -3.4641,1013.2584 -27.7129,1047.8997 -25.9811,36.3732 -36.3734,38.1055 -306.5757,36.3732 -154.1537,0 -290.9869,-5.1961 -303.1114,-10.3922 z"
       id="path7"
       style="stroke-width:1.73206" />
    <path
       d="m 2714.2801,3770.7959 c -41.5697,-41.5694 -43.3018,-48.4977 -38.1056,-270.2021 l 5.1963,-226.9006 337.7527,-197.4554 c 185.331,-109.1202 341.217,-197.4555 346.4131,-197.4555 5.1961,0 6.9282,195.7233 3.4641,436.4805 -3.4641,374.1262 -8.6602,441.6767 -32.9092,467.6577 -24.249,27.7131 -60.6223,31.1771 -303.1114,31.1771 -270.2023,0 -275.3984,0 -318.7,-43.3017 z"
       id="path8"
       style="stroke-width:1.73206" />
  </g>
</svg>
