<?xml version="1.0" standalone="no"?>
<!DOCTYPE svg PUBLIC "-//W3C//DTD SVG 20010904//EN"
 "http://www.w3.org/TR/2001/REC-SVG-20010904/DTD/svg10.dtd">
<svg version="1.0" xmlns="http://www.w3.org/2000/svg"
 width="1024.000000pt" height="1024.000000pt" viewBox="0 0 1024.000000 1024.000000"
 preserveAspectRatio="xMidYMid meet">

<g transform="translate(0.000000,1024.000000) scale(0.100000,-0.100000)"
fill="#000000" stroke="none">
<path d="M0 5120 l0 -5120 5120 0 5120 0 0 5120 0 5120 -5120 0 -5120 0 0
-5120z m5505 3614 c718 -74 1343 -329 1910 -780 141 -113 416 -387 529 -529
591 -741 868 -1668 776 -2595 -82 -830 -441 -1582 -1039 -2179 -468 -467
-1046 -797 -1676 -955 -1135 -285 -2357 6 -3250 774 -123 106 -363 354 -459
473 -444 555 -702 1185 -770 1875 -29 287 -27 499 4 782 76 677 358 1334 803
1870 94 113 291 313 402 409 577 498 1303 800 2065 861 74 6 155 12 180 14 80
7 381 -5 525 -20z"/>
<path d="M4970 7457 c-55 -19 -1513 -859 -1717 -989 -101 -64 -174 -154 -216
-267 -22 -55 -22 -65 -25 -981 -2 -604 1 -953 7 -1005 25 -185 123 -308 356
-442 77 -44 450 -259 829 -478 379 -219 714 -407 745 -418 59 -21 182 -29 233
-14 18 5 34 21 46 45 33 64 134 313 130 318 -3 2 -42 -12 -89 -31 -98 -40
-173 -45 -254 -17 -27 10 -286 154 -575 322 -289 167 -633 366 -765 442 -246
143 -301 183 -338 253 l-22 40 -3 894 c-3 982 -4 953 57 1037 17 22 47 52 68
66 21 14 299 178 618 363 319 186 664 387 766 447 304 177 304 177 693 -49
797 -462 1046 -609 1095 -645 42 -32 55 -37 62 -27 4 8 29 64 55 126 l46 112
-19 33 c-16 27 -135 100 -669 411 -707 412 -765 443 -839 463 -79 21 -199 17
-275 -9z"/>
<path d="M5599 6346 c-179 -61 -334 -117 -343 -125 -11 -9 -16 -25 -14 -45 3
-26 19 -43 108 -109 58 -43 106 -81 107 -85 4 -9 -477 -577 -488 -577 -5 0
-94 71 -198 157 -104 87 -201 162 -216 168 -37 14 -91 12 -123 -4 -15 -8 -188
-179 -386 -380 -383 -392 -384 -392 -366 -473 25 -110 155 -161 246 -95 21 16
160 153 308 306 148 152 273 275 277 274 4 -2 93 -76 198 -165 129 -109 204
-166 230 -174 48 -14 100 -5 136 23 16 12 123 130 238 262 116 133 257 294
314 358 l104 117 94 -69 c136 -100 169 -94 179 32 11 149 26 486 26 580 0 92
-1 97 -26 117 -15 12 -38 20 -53 20 -14 -1 -173 -52 -352 -113z"/>
<path d="M6997 6353 c-20 -43 -175 -411 -345 -818 -171 -407 -425 -1012 -565
-1345 -303 -720 -467 -1110 -475 -1129 -3 -8 11 -4 39 12 24 14 323 186 664
383 341 196 638 368 659 382 98 61 188 171 229 280 22 57 22 59 25 992 2 619
-1 959 -8 1005 -13 87 -63 192 -125 263 -26 28 -50 52 -54 52 -4 0 -24 -35
-44 -77z m-59 -1568 c-3 -525 -3 -530 -25 -575 -13 -25 -41 -63 -63 -85 -39
-38 -642 -398 -648 -386 -1 4 41 107 94 231 176 412 421 1003 531 1278 l108
271 3 -102 c2 -56 2 -340 0 -632z"/>
<path d="M5626 5388 c-14 -20 -16 -116 -16 -838 l1 -815 30 70 c17 39 107 256
200 484 l169 414 0 333 0 333 -26 20 c-24 19 -40 21 -185 21 -152 0 -158 -1
-173 -22z"/>
<path d="M4991 4793 c-21 -26 -21 -31 -21 -718 l1 -692 51 -28 c39 -21 70 -29
123 -33 80 -5 127 6 192 47 l43 26 0 686 c0 679 0 687 -21 713 l-20 26 -164 0
-164 0 -20 -27z"/>
<path d="M4372 4723 c-7 -3 -19 -18 -27 -33 -13 -24 -15 -102 -15 -482 l0
-453 108 -59 c59 -33 151 -86 205 -117 l97 -58 0 582 c0 511 -2 585 -16 605
-15 21 -21 22 -177 21 -89 0 -168 -3 -175 -6z"/>
<path d="M3724 4405 c-24 -24 -25 -28 -22 -156 l3 -131 195 -114 c107 -63 197
-114 200 -114 3 0 4 113 2 252 -2 216 -5 255 -19 270 -14 16 -35 18 -175 18
-156 0 -159 0 -184 -25z"/>
</g>
</svg>
